# xmcd
#
# Track frame offsets:
#	150
#	23678
#	39412
#	56070
#	70253
#	83289
#	97860
#	111776
#	128082
#	142144
#	164745
#	179876
#	204350
#	249401
#
# Disc length: 3457 seconds
#
# Revision: 1
# Processed by: cddbd v1.5.2PL0 Copyright (c) Steve Scherf et al.
# Submitted via: EasyCDDAExtractor 2010.6.0.0
#
DISCID=be0d7f0e
DTITLE=Various Artist - Emozioni In Musica-Sensazioni Esotiche
DYEAR=1998
DGENRE=Italiani
TTITLE0=Paolo Conte - Alle Prese Con Una Verde Milonga 1981
TTITLE1=Gruppo Italiano - Tropicana 1983
TTITLE2=Francesco De Gregori - Dolce Amore Del Bahia 1974
TTITLE3=Los Indios Tabajaras - Maria Elena 1958
TTITLE4=Bobby Solo - Siesta 1968
TTITLE5=Renato Carosone - Caravan Petrol 1975
TTITLE6=Riccardo Del Turco - Figlio Unico 1966
TTITLE7=Eugenio Finardi - Le Ragazze Di Osaka 1992
TTITLE8=Paolo Conte - La Ricostruzione Del Mocambo 1975
TTITLE9=Litfiba - Cangaceiro 1992
TTITLE10=Delirium - Haum 1980
TTITLE11=Eugenio Finardi - Soweto 1987
TTITLE12=Ivano Fossati - Good-Bye Indiana 1978
TTITLE13=Fred Bongusto - Makaga 1963
EXTD=
EXTT0=
EXTT1=
EXTT2=
EXTT3=
EXTT4=
EXTT5=
EXTT6=
EXTT7=
EXTT8=
EXTT9=
EXTT10=
EXTT11=
EXTT12=
EXTT13=
PLAYORDER=
